<svg xmlns="http://www.w3.org/2000/svg" viewBox="0 0 1034.53 319.49"><defs><style>.cls-1{fill:#191919;stroke:#fff;stroke-miterlimit:10;stroke-width:3.84px;}.cls-2{fill:#fff;}</style></defs><rect class="cls-1" x="1.92" y="1.92" width="1030.69" height="315.64" rx="50"/><path class="cls-2" d="M215.57,166.14c-5.21-26.48,17.81-40.61,19.49-41.61a43.38,43.38,0,0,0-11.77-10.84c-13.76-8.58-30.52-9.38-40.49-5l-.3.13a38.12,38.12,0,0,1-30.52,0l-.3-.13c-10-4.39-26.73-3.59-40.49,5s-27.13,27.92-20.35,65,31.52,59.64,31.52,59.64a26.81,26.81,0,0,0,27.33,3.39c9.72-4.24,14.15-5,16.1-4.93,1,0,1.93,0,2.9,0,1.95,0,6.38.69,16.1,4.93a26.81,26.81,0,0,0,27.33-3.39s17.33-15.8,27-42.71C230.81,191.83,219,183.47,215.57,166.14Z"/><path class="cls-2" d="M162.87,107.3s-4.36-37,37.29-43.59l-.17,5a40.09,40.09,0,0,1-37.12,38.63Z"/><path class="cls-2" d="M368.46,87.51a36.36,36.36,0,0,1-1.62,11.37,21.56,21.56,0,0,1-4.79,8.25,20.09,20.09,0,0,1-7.81,5,32.36,32.36,0,0,1-11.09,1.7H333.07a2.6,2.6,0,0,1-1.47-.53,2.26,2.26,0,0,1-.75-2V65.17a2.26,2.26,0,0,1,.75-2,2.6,2.6,0,0,1,1.47-.53h10.75a29.93,29.93,0,0,1,11,1.78,20.26,20.26,0,0,1,7.51,5,21.5,21.5,0,0,1,4.57,7.83A31.67,31.67,0,0,1,368.46,87.51Zm-5.18.24a29.13,29.13,0,0,0-1.13-8.28,17.79,17.79,0,0,0-3.48-6.59,16.11,16.11,0,0,0-5.95-4.33A23.22,23.22,0,0,0,343.55,67h-7.87v42.55h7.91a26.53,26.53,0,0,0,8.84-1.29,14.41,14.41,0,0,0,6-4,17.31,17.31,0,0,0,3.61-6.78A34.53,34.53,0,0,0,363.28,87.75Z"/><path class="cls-2" d="M410.81,94.79a26.92,26.92,0,0,1-1.1,7.87,17.9,17.9,0,0,1-3.31,6.25,15,15,0,0,1-5.47,4.13,18.35,18.35,0,0,1-7.63,1.48A18.86,18.86,0,0,1,386,113.2a14,14,0,0,1-5.26-3.8,16,16,0,0,1-3.16-6,27.83,27.83,0,0,1-1.05-8,26.93,26.93,0,0,1,1.09-7.87,17.35,17.35,0,0,1,3.28-6.23,15,15,0,0,1,5.48-4.09A18.74,18.74,0,0,1,394,75.81a19,19,0,0,1,7.33,1.3,13.47,13.47,0,0,1,5.24,3.78,16.65,16.65,0,0,1,3.17,6A27.28,27.28,0,0,1,410.81,94.79Zm-5,.43a28.05,28.05,0,0,0-.59-5.81,14.48,14.48,0,0,0-2-4.88,9.91,9.91,0,0,0-3.72-3.36,12.21,12.21,0,0,0-5.81-1.25,12.37,12.37,0,0,0-5.54,1.15,10.17,10.17,0,0,0-3.81,3.18,14.08,14.08,0,0,0-2.2,4.81,24.07,24.07,0,0,0-.71,6,28.57,28.57,0,0,0,.59,5.87,14.15,14.15,0,0,0,2,4.88,9.73,9.73,0,0,0,3.72,3.32,14.13,14.13,0,0,0,11.35.08,10.23,10.23,0,0,0,3.81-3.16,13.84,13.84,0,0,0,2.2-4.78A24.36,24.36,0,0,0,405.83,95.22Z"/><path class="cls-2" d="M468.47,77.19a2.08,2.08,0,0,1-.06.46c0,.17-.08.36-.14.57L457.2,113.06a.94.94,0,0,1-.3.51,1.42,1.42,0,0,1-.57.32,4,4,0,0,1-.93.16c-.38,0-.84,0-1.36,0s-1,0-1.43-.06a5,5,0,0,1-1-.18,1.51,1.51,0,0,1-.59-.32,1.12,1.12,0,0,1-.3-.47l-8.3-28.24-.08-.31-.08.31-7.75,28.24a.92.92,0,0,1-.32.51,1.58,1.58,0,0,1-.65.32,5.09,5.09,0,0,1-1,.16c-.39,0-.84,0-1.34,0a12.84,12.84,0,0,1-1.35-.06,5.12,5.12,0,0,1-.93-.18,1.29,1.29,0,0,1-.57-.32,1.18,1.18,0,0,1-.28-.47l-11-34.84a2.94,2.94,0,0,1-.18-.55,2.4,2.4,0,0,1-.06-.48.89.89,0,0,1,.12-.47.75.75,0,0,1,.4-.3,2.86,2.86,0,0,1,.71-.14c.29,0,.65,0,1.07,0a12,12,0,0,1,1.34.06,2.64,2.64,0,0,1,.77.18.81.81,0,0,1,.38.32,2.29,2.29,0,0,1,.2.47l9.45,31.24.08.28.08-.28L440,77.27a1.56,1.56,0,0,1,.21-.47,1,1,0,0,1,.4-.32,2.51,2.51,0,0,1,.71-.18,9.3,9.3,0,0,1,1.17-.06,8.39,8.39,0,0,1,1.11.06,2.81,2.81,0,0,1,.71.18.79.79,0,0,1,.39.32,1.85,1.85,0,0,1,.2.47l9.25,31.24.08.28,0-.28,9.41-31.24a1.86,1.86,0,0,1,.22-.47.88.88,0,0,1,.42-.32,2.82,2.82,0,0,1,.77-.18,11.08,11.08,0,0,1,1.28-.06c.43,0,.77,0,1,0a1.79,1.79,0,0,1,.63.16.63.63,0,0,1,.32.3A1.17,1.17,0,0,1,468.47,77.19Z"/><path class="cls-2" d="M506.59,113.06a.8.8,0,0,1-.12.43.78.78,0,0,1-.37.32,2.8,2.8,0,0,1-.71.2,7.11,7.11,0,0,1-1.13.08,7.38,7.38,0,0,1-1.17-.08,2.8,2.8,0,0,1-.71-.2.81.81,0,0,1-.38-.32.89.89,0,0,1-.11-.43V91.82a23.17,23.17,0,0,0-.52-5.39,10.52,10.52,0,0,0-1.54-3.56,7,7,0,0,0-2.63-2.3,8.18,8.18,0,0,0-3.74-.81A9.36,9.36,0,0,0,488,81.7a29.9,29.9,0,0,0-5.74,5.69v25.67a.8.8,0,0,1-.12.43.78.78,0,0,1-.37.32,2.8,2.8,0,0,1-.71.2,7.48,7.48,0,0,1-1.17.08,7.11,7.11,0,0,1-1.13-.08,3.12,3.12,0,0,1-.73-.2.72.72,0,0,1-.38-.32,1,1,0,0,1-.09-.43V77.27a1,1,0,0,1,.09-.43.8.8,0,0,1,.38-.34,2.35,2.35,0,0,1,.69-.2,8,8,0,0,1,1.09-.06,8.39,8.39,0,0,1,1.11.06,1.9,1.9,0,0,1,.67.2.8.8,0,0,1,.34.34,1,1,0,0,1,.09.43v5.06a22.37,22.37,0,0,1,6.05-5,12.7,12.7,0,0,1,5.9-1.54A13.39,13.39,0,0,1,499.91,77a10.43,10.43,0,0,1,3.89,3.21,13.06,13.06,0,0,1,2.14,4.7,28.25,28.25,0,0,1,.65,6.49Z"/><path class="cls-2" d="M524.35,113.06a.8.8,0,0,1-.12.43.81.81,0,0,1-.38.32,2.8,2.8,0,0,1-.71.2,7.29,7.29,0,0,1-1.17.08,7,7,0,0,1-1.12-.08,3,3,0,0,1-.73-.2.69.69,0,0,1-.38-.32.88.88,0,0,1-.1-.43V59.75a.88.88,0,0,1,.1-.43.8.8,0,0,1,.38-.34,2.3,2.3,0,0,1,.73-.2,8.77,8.77,0,0,1,1.12-.06,9.19,9.19,0,0,1,1.17.06,2.16,2.16,0,0,1,.71.2,1,1,0,0,1,.38.34.8.8,0,0,1,.12.43Z"/><path class="cls-2" d="M569.19,94.79a26.59,26.59,0,0,1-1.11,7.87,17.72,17.72,0,0,1-3.3,6.25,15.13,15.13,0,0,1-5.47,4.13,18.4,18.4,0,0,1-7.64,1.48,18.81,18.81,0,0,1-7.33-1.32,14,14,0,0,1-5.26-3.8,16.19,16.19,0,0,1-3.17-6,28.2,28.2,0,0,1-1-8A27.28,27.28,0,0,1,536,87.59a17.53,17.53,0,0,1,3.29-6.23,15,15,0,0,1,5.47-4.09,18.82,18.82,0,0,1,7.68-1.46,19,19,0,0,1,7.33,1.3A13.55,13.55,0,0,1,565,80.89a16.48,16.48,0,0,1,3.16,6A26.94,26.94,0,0,1,569.19,94.79Zm-5,.43a28.05,28.05,0,0,0-.59-5.81,14.48,14.48,0,0,0-2-4.88,9.91,9.91,0,0,0-3.72-3.36,12.21,12.21,0,0,0-5.81-1.25,12.37,12.37,0,0,0-5.54,1.15,10.09,10.09,0,0,0-3.81,3.18,14.08,14.08,0,0,0-2.2,4.81,24.07,24.07,0,0,0-.71,6,28.57,28.57,0,0,0,.59,5.87,14.15,14.15,0,0,0,2,4.88,9.73,9.73,0,0,0,3.72,3.32,14.13,14.13,0,0,0,11.35.08A10.31,10.31,0,0,0,561.3,106a13.84,13.84,0,0,0,2.2-4.78A24.36,24.36,0,0,0,564.21,95.22Z"/><path class="cls-2" d="M604.82,113.06a.73.73,0,0,1-.26.61,1.55,1.55,0,0,1-.67.32,5.36,5.36,0,0,1-1.12.1,6.23,6.23,0,0,1-1.15-.1,1.6,1.6,0,0,1-.73-.32.76.76,0,0,1-.26-.61v-4a18.06,18.06,0,0,1-5.32,4,13.55,13.55,0,0,1-6,1.42,16.1,16.1,0,0,1-5-.73,10.79,10.79,0,0,1-3.78-2.09,9.15,9.15,0,0,1-2.37-3.31,11,11,0,0,1-.83-4.35,9.92,9.92,0,0,1,4.7-8.82A17.09,17.09,0,0,1,587.38,93a31.2,31.2,0,0,1,7-.73h5.7V89.21a15.41,15.41,0,0,0-.48-4,7.11,7.11,0,0,0-1.54-3,6.61,6.61,0,0,0-2.77-1.78,12.84,12.84,0,0,0-4.15-.59,14.81,14.81,0,0,0-4.27.57,22.17,22.17,0,0,0-3.32,1.29c-1,.47-1.74.9-2.36,1.29a3.18,3.18,0,0,1-1.32.57,1.27,1.27,0,0,1-.44-.08.67.67,0,0,1-.33-.3,1.54,1.54,0,0,1-.2-.55,4.62,4.62,0,0,1-.06-.81,5.91,5.91,0,0,1,.12-1.33,2.07,2.07,0,0,1,.61-1,8,8,0,0,1,1.76-1.17,21.72,21.72,0,0,1,2.91-1.25,24.67,24.67,0,0,1,3.54-.93,21.13,21.13,0,0,1,3.79-.35,18.63,18.63,0,0,1,6.21.89,10.1,10.1,0,0,1,4.1,2.55,9.63,9.63,0,0,1,2.23,4.09,20.66,20.66,0,0,1,.67,5.52Zm-4.7-16.89h-6.53a21.52,21.52,0,0,0-5,.52,10.39,10.39,0,0,0-3.56,1.5,6.35,6.35,0,0,0-2.12,2.37,7,7,0,0,0-.69,3.17,6.43,6.43,0,0,0,2,4.92,7.72,7.72,0,0,0,5.52,1.84,10.14,10.14,0,0,0,5.24-1.44,23.76,23.76,0,0,0,5.16-4.45Z"/><path class="cls-2" d="M646.74,113.06a1,1,0,0,1-.1.47.68.68,0,0,1-.36.32,2.32,2.32,0,0,1-.65.18,6.71,6.71,0,0,1-1,.06,7.37,7.37,0,0,1-1-.06,2.46,2.46,0,0,1-.68-.18.89.89,0,0,1-.39-.32.82.82,0,0,1-.14-.47v-5.14a25.5,25.5,0,0,1-5.89,4.84,13,13,0,0,1-6.65,1.76,13.52,13.52,0,0,1-6.6-1.5A12.6,12.6,0,0,1,618.8,109a18,18,0,0,1-2.51-6,32.77,32.77,0,0,1-.79-7.34,31.47,31.47,0,0,1,1-8.21,18.09,18.09,0,0,1,2.92-6.22,13.08,13.08,0,0,1,4.79-4,15,15,0,0,1,6.6-1.38,12.36,12.36,0,0,1,5.93,1.44A20.65,20.65,0,0,1,642,81.5V60a1,1,0,0,1,.1-.43.69.69,0,0,1,.38-.32,3.12,3.12,0,0,1,.73-.2,7,7,0,0,1,1.13-.08,7.25,7.25,0,0,1,1.16.08,2.89,2.89,0,0,1,.72.2.78.78,0,0,1,.37.32.8.8,0,0,1,.12.43ZM642,87.24a29.16,29.16,0,0,0-5.71-5.5,9.94,9.94,0,0,0-5.75-1.9,8.17,8.17,0,0,0-4.67,1.31,10.07,10.07,0,0,0-3.16,3.44A16.08,16.08,0,0,0,621,89.41a26.91,26.91,0,0,0-.56,5.46,34.12,34.12,0,0,0,.48,5.77,16.41,16.41,0,0,0,1.62,5,9.58,9.58,0,0,0,3,3.52,8.07,8.07,0,0,0,4.75,1.33,9.57,9.57,0,0,0,2.77-.4,11.08,11.08,0,0,0,2.77-1.3,20.54,20.54,0,0,0,2.94-2.35,39,39,0,0,0,3.26-3.58Z"/><path class="cls-2" d="M709.93,94.79a26.92,26.92,0,0,1-1.1,7.87,17.9,17.9,0,0,1-3.31,6.25,15.13,15.13,0,0,1-5.47,4.13,18.4,18.4,0,0,1-7.64,1.48,18.81,18.81,0,0,1-7.33-1.32,14,14,0,0,1-5.26-3.8,16,16,0,0,1-3.16-6,27.83,27.83,0,0,1-1-8,26.93,26.93,0,0,1,1.09-7.87A17.35,17.35,0,0,1,680,81.36a15,15,0,0,1,5.47-4.09,21.12,21.12,0,0,1,15-.16,13.55,13.55,0,0,1,5.24,3.78,16.65,16.65,0,0,1,3.17,6A27.28,27.28,0,0,1,709.93,94.79Zm-5,.43a28.05,28.05,0,0,0-.59-5.81,14.48,14.48,0,0,0-2-4.88,9.91,9.91,0,0,0-3.72-3.36,12.21,12.21,0,0,0-5.81-1.25,12.37,12.37,0,0,0-5.54,1.15,10.17,10.17,0,0,0-3.81,3.18,14.08,14.08,0,0,0-2.2,4.81,24.07,24.07,0,0,0-.71,6,28.57,28.57,0,0,0,.59,5.87,14.15,14.15,0,0,0,2,4.88,9.73,9.73,0,0,0,3.72,3.32,14.13,14.13,0,0,0,11.35.08A10.31,10.31,0,0,0,702,106a13.84,13.84,0,0,0,2.2-4.78A24.36,24.36,0,0,0,705,95.22Z"/><path class="cls-2" d="M749.52,113.06a.8.8,0,0,1-.12.43.81.81,0,0,1-.38.32,2.8,2.8,0,0,1-.71.2,7,7,0,0,1-1.13.08A7.25,7.25,0,0,1,746,114a2.68,2.68,0,0,1-.71-.2.76.76,0,0,1-.38-.32.8.8,0,0,1-.12-.43V91.82a23.25,23.25,0,0,0-.51-5.39,10.93,10.93,0,0,0-1.54-3.56,7.1,7.1,0,0,0-2.63-2.3,8.21,8.21,0,0,0-3.74-.81,9.41,9.41,0,0,0-5.46,1.94,29.6,29.6,0,0,0-5.73,5.69v25.67a.8.8,0,0,1-.12.43.81.81,0,0,1-.38.32,2.8,2.8,0,0,1-.71.2,7.29,7.29,0,0,1-1.17.08,7,7,0,0,1-1.12-.08,3,3,0,0,1-.73-.2.69.69,0,0,1-.38-.32.88.88,0,0,1-.1-.43V77.27a.88.88,0,0,1,.1-.43.76.76,0,0,1,.38-.34,2.27,2.27,0,0,1,.69-.2,7.86,7.86,0,0,1,1.09-.06,8.33,8.33,0,0,1,1.1.06,1.84,1.84,0,0,1,.67.2.74.74,0,0,1,.34.34.88.88,0,0,1,.1.43v5.06a22.22,22.22,0,0,1,6-5,12.66,12.66,0,0,1,5.89-1.54A13.33,13.33,0,0,1,742.83,77a10.54,10.54,0,0,1,3.9,3.21,12.88,12.88,0,0,1,2.13,4.7,27.65,27.65,0,0,1,.66,6.49Z"/><path class="cls-2" d="M798.12,110.92a5.42,5.42,0,0,1-.14,1.35,1.76,1.76,0,0,1-.44.81,2.66,2.66,0,0,1-.87.55,7.55,7.55,0,0,1-1.32.44,12.68,12.68,0,0,1-1.58.27,13,13,0,0,1-1.62.1,12.52,12.52,0,0,1-4.51-.71,7.16,7.16,0,0,1-3-2.15,9.15,9.15,0,0,1-1.72-3.66,22.87,22.87,0,0,1-.53-5.22V80.43H777a1,1,0,0,1-.87-.49,2.78,2.78,0,0,1-.32-1.48,4.51,4.51,0,0,1,.08-.89,2.51,2.51,0,0,1,.24-.64,1,1,0,0,1,.38-.37,1,1,0,0,1,.49-.12h5.34V67.66a.88.88,0,0,1,.1-.43.73.73,0,0,1,.37-.34,2.45,2.45,0,0,1,.74-.2,8.67,8.67,0,0,1,1.12-.06,9.19,9.19,0,0,1,1.17.06,2.16,2.16,0,0,1,.71.2.91.91,0,0,1,.38.34.8.8,0,0,1,.12.43v8.78h9.88a1,1,0,0,1,.5.12,1,1,0,0,1,.37.37,1.94,1.94,0,0,1,.24.64,4.51,4.51,0,0,1,.08.89,2.59,2.59,0,0,1-.34,1.48,1,1,0,0,1-.85.49h-9.88v21.64a13.17,13.17,0,0,0,1.16,6.2q1.17,2.15,4.25,2.14a6.94,6.94,0,0,0,1.72-.2,10.63,10.63,0,0,0,1.37-.43l1-.44a1.75,1.75,0,0,1,.73-.2.78.78,0,0,1,.35.08.65.65,0,0,1,.26.3,2.26,2.26,0,0,1,.16.55A5,5,0,0,1,798.12,110.92Z"/><path class="cls-2" d="M836.52,113.06a.8.8,0,0,1-.12.43.81.81,0,0,1-.38.32,2.8,2.8,0,0,1-.71.2,7,7,0,0,1-1.13.08A7.25,7.25,0,0,1,833,114a2.68,2.68,0,0,1-.71-.2.76.76,0,0,1-.38-.32.8.8,0,0,1-.12-.43V91.82a23.25,23.25,0,0,0-.51-5.39,10.73,10.73,0,0,0-1.55-3.56,6.94,6.94,0,0,0-2.63-2.3,8.14,8.14,0,0,0-3.73-.81,9.41,9.41,0,0,0-5.46,1.94,29.6,29.6,0,0,0-5.73,5.69v25.67a.8.8,0,0,1-.12.43.81.81,0,0,1-.38.32,2.8,2.8,0,0,1-.71.2,7.29,7.29,0,0,1-1.17.08,7,7,0,0,1-1.12-.08,3,3,0,0,1-.73-.2.69.69,0,0,1-.38-.32.88.88,0,0,1-.1-.43V59.75a.88.88,0,0,1,.1-.43A.8.8,0,0,1,808,59a2.3,2.3,0,0,1,.73-.2,8.77,8.77,0,0,1,1.12-.06,9.19,9.19,0,0,1,1.17.06,2.16,2.16,0,0,1,.71.2,1,1,0,0,1,.38.34.8.8,0,0,1,.12.43V82.1a21.37,21.37,0,0,1,5.85-4.77,12.63,12.63,0,0,1,5.85-1.52A13.33,13.33,0,0,1,829.83,77a10.54,10.54,0,0,1,3.9,3.21,12.88,12.88,0,0,1,2.13,4.7,27.65,27.65,0,0,1,.66,6.49Z"/><path class="cls-2" d="M878.75,93.33a2.23,2.23,0,0,1-.75,2,2.52,2.52,0,0,1-1.46.54h-24.4a25.28,25.28,0,0,0,.65,6,11.91,11.91,0,0,0,2.15,4.61,9.77,9.77,0,0,0,3.92,2.94,15.07,15.07,0,0,0,5.93,1,20.9,20.9,0,0,0,4.47-.44,27,27,0,0,0,3.42-1c1-.36,1.75-.68,2.37-1a3.79,3.79,0,0,1,1.33-.44.8.8,0,0,1,.43.12.87.87,0,0,1,.32.38,2.42,2.42,0,0,1,.18.65,6.71,6.71,0,0,1,.06,1,4.55,4.55,0,0,1,0,.53c0,.17-.06.33-.1.48a1.65,1.65,0,0,1-.18.41,2.15,2.15,0,0,1-.32.4,6.15,6.15,0,0,1-1.22.69,18.71,18.71,0,0,1-2.69,1,37.41,37.41,0,0,1-3.86.89,26.91,26.91,0,0,1-4.72.39,20.24,20.24,0,0,1-7.36-1.24,13.86,13.86,0,0,1-5.38-3.68,16.1,16.1,0,0,1-3.3-6,28,28,0,0,1-1.12-8.35,26.28,26.28,0,0,1,1.16-8.14A17.39,17.39,0,0,1,851.58,81a14.45,14.45,0,0,1,5.24-3.84,17.1,17.1,0,0,1,6.82-1.32,16.16,16.16,0,0,1,6.89,1.34,13.12,13.12,0,0,1,4.68,3.62,14.67,14.67,0,0,1,2.69,5.28,23,23,0,0,1,.85,6.33Zm-4.86-1.39q.12-5.68-2.61-8.9t-7.95-3.2a10.31,10.31,0,0,0-8.17,3.68A12,12,0,0,0,853,87.37a16.73,16.73,0,0,0-.87,4.57Z"/><path class="cls-2" d="M475.61,190.31a33.26,33.26,0,0,0-4.68-11.23,23.94,23.94,0,0,0-8.55-7.78,26.15,26.15,0,0,0-12.58-2.86,26.55,26.55,0,0,0-6.41.76,25,25,0,0,0-5.91,2.35,36.43,36.43,0,0,0-5.61,3.87c-.74.61-1.49,1.27-2.27,2v-9H418V263H430.3V233.23c.55.49,1.1,1,1.63,1.38a32.28,32.28,0,0,0,5,3.34,22.41,22.41,0,0,0,5.25,2,24.27,24.27,0,0,0,5.7.65A28.31,28.31,0,0,0,460.36,238a25.61,25.61,0,0,0,9.24-7.58,33.93,33.93,0,0,0,5.57-11.69A57.52,57.52,0,0,0,477,203.6,60.8,60.8,0,0,0,475.61,190.31Zm-12.29,23.76a27.78,27.78,0,0,1-2.95,8,16.14,16.14,0,0,1-5,5.45,12.29,12.29,0,0,1-7.12,2,14.89,14.89,0,0,1-8.83-3,50.7,50.7,0,0,1-9.14-8.79v-26a54.87,54.87,0,0,1,5.07-5.53,35.09,35.09,0,0,1,4.93-3.92,17.2,17.2,0,0,1,4.38-2.06,15.66,15.66,0,0,1,4.35-.62,12.31,12.31,0,0,1,7.17,1.94,14.69,14.69,0,0,1,4.65,5.4,27.67,27.67,0,0,1,2.63,8.15,59.47,59.47,0,0,1,.8,9.86A44.23,44.23,0,0,1,463.32,214.07Z"/><path class="cls-2" d="M549.68,190.31A33.26,33.26,0,0,0,545,179.08a23.91,23.91,0,0,0-8.54-7.78,26.19,26.19,0,0,0-12.59-2.86,26.61,26.61,0,0,0-6.41.76,25.13,25.13,0,0,0-5.91,2.35,35.89,35.89,0,0,0-5.6,3.87c-.74.61-1.5,1.27-2.27,2v-9H492.06V263h12.31V233.23c.56.49,1.1,1,1.63,1.38a32.35,32.35,0,0,0,5,3.34,22.18,22.18,0,0,0,5.24,2,24.27,24.27,0,0,0,5.7.65A28.31,28.31,0,0,0,534.43,238a25.65,25.65,0,0,0,9.25-7.58,34.1,34.1,0,0,0,5.56-11.69,57.5,57.5,0,0,0,1.85-15.08A60.79,60.79,0,0,0,549.68,190.31Zm-12.29,23.76a27.78,27.78,0,0,1-2.95,8,16,16,0,0,1-5,5.45,12.25,12.25,0,0,1-7.12,2,14.92,14.92,0,0,1-8.83-3,50.7,50.7,0,0,1-9.14-8.79v-26a53.72,53.72,0,0,1,5.08-5.53,35.05,35.05,0,0,1,4.92-3.92,17.1,17.1,0,0,1,4.39-2.06,15.56,15.56,0,0,1,4.35-.62,12.33,12.33,0,0,1,7.17,1.94,14.78,14.78,0,0,1,4.65,5.4,28,28,0,0,1,2.62,8.15,58.4,58.4,0,0,1,.81,9.86A44.24,44.24,0,0,1,537.39,214.07Z"/><path class="cls-2" d="M760.23,178.1a26,26,0,0,0-10-7.2,35.58,35.58,0,0,0-13.69-2.46,34.94,34.94,0,0,0-14.32,2.76A28.31,28.31,0,0,0,711.86,179a32.93,32.93,0,0,0-6.16,11.67,49.85,49.85,0,0,0-2,14.44,51.25,51.25,0,0,0,1.93,14.57,30.46,30.46,0,0,0,6,11.28,26.54,26.54,0,0,0,10,7.23,35.25,35.25,0,0,0,13.7,2.49,34.54,34.54,0,0,0,14.27-2.79A28.55,28.55,0,0,0,759.93,230a33.91,33.91,0,0,0,6.19-11.69,49.17,49.17,0,0,0,2-14.44,50.28,50.28,0,0,0-2-14.51A31.3,31.3,0,0,0,760.23,178.1Zm-4.87,26.54a41,41,0,0,1-1.19,10.08,22.36,22.36,0,0,1-3.54,7.73,16.19,16.19,0,0,1-6,5,23,23,0,0,1-18.16-.12,15.45,15.45,0,0,1-5.8-5.17,22.9,22.9,0,0,1-3.19-7.91,47.33,47.33,0,0,1-1-9.92,40.28,40.28,0,0,1,1.19-10,22.82,22.82,0,0,1,3.54-7.77,16.05,16.05,0,0,1,6-5,19.86,19.86,0,0,1,8.86-1.82,19.63,19.63,0,0,1,9.28,2,15.66,15.66,0,0,1,5.81,5.24,23.58,23.58,0,0,1,3.2,7.92A47.22,47.22,0,0,1,755.36,204.64Z"/><path class="cls-2" d="M375.53,148.18H360.89l-30.51,92.31h12.49L349.66,214h36.69l7,26.46H406Zm-22,54.72,14.21-40.51,14.55,40.51Z"/><path class="cls-2" d="M647.53,203.06a24.9,24.9,0,0,0-5.23-7.35,34.67,34.67,0,0,0-7.21-5.32c-2.55-1.43-5.2-2.79-7.85-4s-5.19-2.45-7.7-3.67a38,38,0,0,1-6.45-3.93,17.32,17.32,0,0,1-4.3-4.74,11.68,11.68,0,0,1-1.52-6.13,12.73,12.73,0,0,1,.87-4.69,10.27,10.27,0,0,1,2.54-3.77,12.44,12.44,0,0,1,4.38-2.59,19,19,0,0,1,6.48-1,23.39,23.39,0,0,1,6.86.92,31.75,31.75,0,0,1,5.29,2.12c1.52.81,2.79,1.54,3.79,2.18l5.09-10.64a13.94,13.94,0,0,0-3.21-2.1,34.27,34.27,0,0,0-5-2.07,45.08,45.08,0,0,0-5.8-1.5,33.17,33.17,0,0,0-6.15-.59,36.24,36.24,0,0,0-11.09,1.63,25.69,25.69,0,0,0-8.87,4.8,21.91,21.91,0,0,0-5.82,7.73,24.52,24.52,0,0,0-2.06,10.2,24,24,0,0,0,2,10.11,25,25,0,0,0,5.19,7.38,35.73,35.73,0,0,0,7.13,5.35c2.54,1.46,5.18,2.83,7.84,4.08s5.17,2.45,7.66,3.67a38.94,38.94,0,0,1,6.38,3.9,17.09,17.09,0,0,1,4.27,4.7,11.68,11.68,0,0,1,1.52,6.13,15.45,15.45,0,0,1-1.25,6.38,12.92,12.92,0,0,1-3.46,4.61,16.24,16.24,0,0,1-5.46,2.93,23.21,23.21,0,0,1-7.17,1.05,29.47,29.47,0,0,1-8.56-1.12,43.13,43.13,0,0,1-6.44-2.52,40.22,40.22,0,0,1-4.37-2.51l-2.54,12.74a39,39,0,0,0,5.33,2.4,51.5,51.5,0,0,0,7.12,2,42.53,42.53,0,0,0,8.55.84,39.87,39.87,0,0,0,12.32-1.84,29.14,29.14,0,0,0,9.94-5.43,25,25,0,0,0,6.59-8.74,27.69,27.69,0,0,0,2.34-11.56A23.57,23.57,0,0,0,647.53,203.06Z"/><path class="cls-2" d="M690,228.39a17.28,17.28,0,0,1-2.16.69,10.7,10.7,0,0,1-2.53.28c-3.79,0-5.08-1.55-5.71-2.71-1.2-2.2-1.81-5.55-1.81-10V180.62h15V169.56h-15V156.12l-12.31,5.42v8H658.8v11.06h6.68V217.8a41.79,41.79,0,0,0,1,9.66,18,18,0,0,0,3.43,7.25,14.68,14.68,0,0,0,6.2,4.39,24.34,24.34,0,0,0,8.66,1.39,25.24,25.24,0,0,0,3.09-.19,24.79,24.79,0,0,0,3-.53,14.64,14.64,0,0,0,2.69-.88l-1.9-11.21C691.21,227.89,690.65,228.13,690,228.39Z"/><path class="cls-2" d="M810.65,168.45h-.51a19.15,19.15,0,0,0-4.55.55,15.51,15.51,0,0,0-4.69,2.11,27.24,27.24,0,0,0-4.76,4.1q-.74.8-1.53,1.74v-8.5h-11.9v72.05H795V194c1.61-2.56,3.1-4.76,4.43-6.54a30.5,30.5,0,0,1,3.91-4.41,13.21,13.21,0,0,1,3.27-2.23,6.83,6.83,0,0,1,2.87-.63c.29,0,.58,0,.94,0l2.16.16V168.5Z"/><path class="cls-2" d="M872.28,225c-.28.11-.57.24-.89.39-1,.49-2.39,1-4,1.64a43.32,43.32,0,0,1-5.76,1.63,34.74,34.74,0,0,1-7.43.72,24.74,24.74,0,0,1-9.66-1.65,15.06,15.06,0,0,1-6.09-4.57,19.22,19.22,0,0,1-3.43-7.35,41.09,41.09,0,0,1-1-8.09h40.9a6.42,6.42,0,0,0,3.74-1.31c1.44-1,2.17-2.74,2.17-5.09v-1.67a42.69,42.69,0,0,0-1.57-11.69,27.91,27.91,0,0,0-5.1-10,25.41,25.41,0,0,0-9-6.93,30.43,30.43,0,0,0-13-2.56,32.2,32.2,0,0,0-12.81,2.5,27.44,27.44,0,0,0-10,7.29,32.72,32.72,0,0,0-6.28,11.45,48.85,48.85,0,0,0-2.15,15,51.36,51.36,0,0,0,2.08,15.29,30.57,30.57,0,0,0,6.23,11.36,26.43,26.43,0,0,0,10.24,7,37.86,37.86,0,0,0,13.68,2.33,49.46,49.46,0,0,0,8.68-.73,63.85,63.85,0,0,0,7-1.62c1.29-.38,2.42-.76,3.4-1.15Zm-36.95-33.51a19.07,19.07,0,0,1,3.43-6.14,16.92,16.92,0,0,1,5.41-4.19,16.63,16.63,0,0,1,7.43-1.57c5.56,0,9.63,1.62,12.46,4.93,2.54,3,3.92,7.14,4.1,12.35H834.1A27,27,0,0,1,835.33,191.47Z"/></svg>