<svg xmlns="http://www.w3.org/2000/svg" viewBox="0 0 1034.53 319.49"><defs><style>.cls-1{fill:#191919;stroke:#fff;stroke-miterlimit:10;stroke-width:3.84px;}.cls-2{fill:#00f076;}.cls-3{fill:#f73448;}.cls-4{fill:#ffca00;}.cls-5{fill:#00d2ff;}.cls-6{fill:#fff;}</style></defs><rect class="cls-1" x="1.92" y="1.92" width="1030.69" height="315.64" rx="50"/><path class="cls-2" d="M210.47,127.57l-29.14,29L95.79,69.42a14.43,14.43,0,0,1,14.83-.11Z"/><path class="cls-3" d="M211.19,187,110.62,245.68a14.48,14.48,0,0,1-17.4-2.07l88.11-87.09Z"/><path class="cls-4" d="M240.25,170.05l-28.83,16.83-.23.13-29.86-30.49,29.14-29,.23.14L240.25,145A14.53,14.53,0,0,1,240.25,170.05Z"/><path class="cls-5" d="M93.22,243.61l-.19-.18a14.32,14.32,0,0,1-4.27-10.3V81.87a14.37,14.37,0,0,1,6.81-12.31l.22-.14,85.54,87.1Z"/><path class="cls-6" d="M401.26,185.31H359.43V196.9h29.34A30.42,30.42,0,1,1,380,166.53l8.2-8.2a42,42,0,1,0,13.21,30.57C401.42,187.69,401.37,186.49,401.26,185.31Z"/><path class="cls-6" d="M434.31,176.63a27,27,0,1,0,26.85,27A26.94,26.94,0,0,0,434.31,176.63Zm0,43.31c-8.12,0-14.7-7.1-14.7-15.86s6.58-15.86,14.7-15.86S449,195.32,449,204.08,442.42,219.94,434.31,219.94Z"/><path class="cls-6" d="M494,176.63a27,27,0,1,0,26.85,27A26.94,26.94,0,0,0,494,176.63Zm0,43.31c-8.11,0-14.69-7.1-14.69-15.86s6.58-15.86,14.69-15.86,14.7,7.1,14.7,15.86S502.16,219.94,494,219.94Z"/><rect class="cls-6" x="582.68" y="146.91" width="11.59" height="84.83"/><path class="cls-6" d="M641.91,210.59a15.83,15.83,0,0,1-26.71,2.76l39.37-15.42-.61-2.05c-.23-.76-.48-1.5-.76-2.21a27.39,27.39,0,1,0-.75,21.7l1-2.16-10.58-4.63Zm-3.63-18.7L612,202.2a15.91,15.91,0,0,1,1.26-4.88,15.83,15.83,0,0,1,14.48-9.48A15.9,15.9,0,0,1,638.28,191.89Z"/><path class="cls-6" d="M565.05,176.63v4.76a22.58,22.58,0,0,0-13.79-4.76c-13.44,0-24.33,12.1-24.33,27s10.89,27,24.33,27a22.53,22.53,0,0,0,13.79-4.77v5.84c0,3.33-2.4,12.61-13.33,12.61s-14-9.78-14-9.78l-10.51,4.89s3.95,15.43,25.56,15.43c11.7,0,17.73-6.79,20.81-13a30.72,30.72,0,0,0,3.07-13.6V176.63Zm-13.79,43.31c-7.35,0-13.32-7.1-13.32-15.86s6-15.86,13.32-15.86,13.32,7.1,13.32,15.86S558.61,219.94,551.26,219.94Z"/><rect class="cls-6" x="694.72" y="146.91" width="11.59" height="84.83"/><path class="cls-6" d="M722.53,146.91V158.5c8.12,0,14.7,7.11,14.7,15.87s-6.58,15.86-14.7,15.86V201a27,27,0,0,0,0-54.05Z"/><rect class="cls-6" x="703.07" y="146.91" width="19.46" height="11.59"/><rect class="cls-6" x="703.07" y="190.23" width="19.46" height="10.73"/><rect class="cls-6" x="755.41" y="146.91" width="11.59" height="84.83"/><path class="cls-6" d="M804.87,224.34l1.42-1.53v8.11h9.76v-35a27.11,27.11,0,0,0-1.17-8.45,12.52,12.52,0,0,0-3.6-5.64,15.81,15.81,0,0,0-6.38-3.28,37.1,37.1,0,0,0-9.62-1.09,36.14,36.14,0,0,0-6.13.51,41.68,41.68,0,0,0-5.51,1.31,33.61,33.61,0,0,0-3.88,1.5l.61,9.17c.72-.35,1.52-.73,2.41-1.13a35.65,35.65,0,0,1,4.91-1.74,23.56,23.56,0,0,1,6.39-.8,16.37,16.37,0,0,1,4.65.58,7.23,7.23,0,0,1,3.21,1.93,7.52,7.52,0,0,1,1.72,3.22,16.39,16.39,0,0,1,.5,4.24V200h-5.59a58.72,58.72,0,0,0-11.29,1,23.94,23.94,0,0,0-8,2.94,12.78,12.78,0,0,0-4.7,4.89,15,15,0,0,0-1.57,7,16.25,16.25,0,0,0,1.24,6.57,12.75,12.75,0,0,0,3.48,4.66,15.23,15.23,0,0,0,5.36,2.86,23.15,23.15,0,0,0,6.9,1,19.22,19.22,0,0,0,8.23-1.73A21.39,21.39,0,0,0,804.87,224.34Zm-6.07-3.12a10.91,10.91,0,0,1-5.76,1.59,8.59,8.59,0,0,1-5.95-2,7,7,0,0,1-2.22-5.43,8,8,0,0,1,.77-3.57,6.84,6.84,0,0,1,2.45-2.7,11.63,11.63,0,0,1,4.12-1.6,29.12,29.12,0,0,1,5.87-.51h6.08v9.46l-.21.23A23.11,23.11,0,0,1,798.8,221.22Z"/><polygon class="cls-6" points="862.07 177.54 853.6 197.12 848.39 209.17 844.86 201.01 834.71 177.54 822.09 177.54 838.55 215.6 842.22 224.09 832.66 247.45 845.29 247.45 853.6 226.32 859.91 211.72 874.69 177.54 862.07 177.54"/><path class="cls-6" d="M387.77,115.33a4,4,0,0,1-.06.74,1.86,1.86,0,0,1-.21.55,1,1,0,0,1-.34.35.92.92,0,0,1-.43.11H367.06a2.09,2.09,0,0,1-1.2-.44,1.85,1.85,0,0,1-.61-1.61V77.12a1.83,1.83,0,0,1,.61-1.6,2,2,0,0,1,1.2-.44h19.38a.78.78,0,0,1,.42.11,1,1,0,0,1,.33.34,1.9,1.9,0,0,1,.19.57,3.74,3.74,0,0,1,.07.79,3.36,3.36,0,0,1-.07.75,1.7,1.7,0,0,1-.19.54.92.92,0,0,1-.33.32.79.79,0,0,1-.42.12H369.21V93.38h14.86a.85.85,0,0,1,.46.12.89.89,0,0,1,.32.32,1.76,1.76,0,0,1,.2.55,4.74,4.74,0,0,1,.06.8,3.91,3.91,0,0,1-.06.73,1.54,1.54,0,0,1-.2.5.8.8,0,0,1-.32.29,1,1,0,0,1-.46.1H369.21v16.75h17.52a.92.92,0,0,1,.43.11,1.18,1.18,0,0,1,.34.33,1.66,1.66,0,0,1,.21.55A4.66,4.66,0,0,1,387.77,115.33Z"/><path class="cls-6" d="M423.18,76.89a4.14,4.14,0,0,1-.06.75,1.7,1.7,0,0,1-.19.54.92.92,0,0,1-.33.32.79.79,0,0,1-.42.12H409.65v37.81a.65.65,0,0,1-.1.36.72.72,0,0,1-.32.26,2.88,2.88,0,0,1-.62.16,7.39,7.39,0,0,1-1.88,0,2.88,2.88,0,0,1-.62-.16.72.72,0,0,1-.32-.26.65.65,0,0,1-.1-.36V78.62H393.16a.78.78,0,0,1-.44-.12,1,1,0,0,1-.31-.32,1.7,1.7,0,0,1-.19-.54,4.07,4.07,0,0,1-.07-.75,4.55,4.55,0,0,1,.07-.79,1.9,1.9,0,0,1,.19-.57,1,1,0,0,1,.31-.34.78.78,0,0,1,.44-.11h29a.78.78,0,0,1,.42.11,1,1,0,0,1,.33.34,1.9,1.9,0,0,1,.19.57A4.62,4.62,0,0,1,423.18,76.89Z"/><path class="cls-6" d="M448.86,116.43a.65.65,0,0,1-.1.36.72.72,0,0,1-.32.26,2.82,2.82,0,0,1-.6.16,7.55,7.55,0,0,1-1.9,0,2.88,2.88,0,0,1-.62-.16.72.72,0,0,1-.32-.26.65.65,0,0,1-.1-.36V75.73a.66.66,0,0,1,.11-.36.77.77,0,0,1,.36-.26A2.64,2.64,0,0,1,446,75a4.59,4.59,0,0,1,.89-.07,5.1,5.1,0,0,1,1,.07,2.33,2.33,0,0,1,.6.16.61.61,0,0,1,.32.26.65.65,0,0,1,.1.36Z"/><path class="cls-6" d="M486.58,76.89a3.36,3.36,0,0,1-.07.75,1.7,1.7,0,0,1-.19.54.92.92,0,0,1-.33.32.79.79,0,0,1-.42.12H473v37.81a.65.65,0,0,1-.1.36.72.72,0,0,1-.32.26,2.88,2.88,0,0,1-.62.16,7.39,7.39,0,0,1-1.88,0,2.88,2.88,0,0,1-.62-.16.72.72,0,0,1-.32-.26.65.65,0,0,1-.1-.36V78.62H456.55a.78.78,0,0,1-.44-.12.93.93,0,0,1-.3-.32,1.49,1.49,0,0,1-.2-.54,4.14,4.14,0,0,1-.06-.75,4.62,4.62,0,0,1,.06-.79,1.66,1.66,0,0,1,.2-.57,1,1,0,0,1,.3-.34.78.78,0,0,1,.44-.11h29a.78.78,0,0,1,.42.11,1,1,0,0,1,.33.34,1.9,1.9,0,0,1,.19.57A3.74,3.74,0,0,1,486.58,76.89Z"/><path class="cls-6" d="M542.08,95.59a33.39,33.39,0,0,1-1.15,9.11,19.33,19.33,0,0,1-3.46,6.94,15.16,15.16,0,0,1-5.81,4.43,22.37,22.37,0,0,1-16.21.08,14.07,14.07,0,0,1-5.52-4.22,17.82,17.82,0,0,1-3.18-6.7,35.8,35.8,0,0,1-1-8.92,33.23,33.23,0,0,1,1.13-9,18.69,18.69,0,0,1,3.46-6.87,15.63,15.63,0,0,1,5.81-4.4,20,20,0,0,1,8.2-1.55A19.58,19.58,0,0,1,532.25,76a14.41,14.41,0,0,1,5.53,4.18A18.07,18.07,0,0,1,541,86.79,33.87,33.87,0,0,1,542.08,95.59Zm-4.22.36a33.16,33.16,0,0,0-.7-7,16.34,16.34,0,0,0-2.3-5.68,11.18,11.18,0,0,0-4.27-3.79A14.19,14.19,0,0,0,524,78.1a13.72,13.72,0,0,0-6.57,1.44,12.16,12.16,0,0,0-4.35,3.88,16,16,0,0,0-2.4,5.68A30.94,30.94,0,0,0,510,96a36.21,36.21,0,0,0,.66,7.12,16.33,16.33,0,0,0,2.26,5.73,11.12,11.12,0,0,0,4.25,3.82,14.34,14.34,0,0,0,6.65,1.38,13.78,13.78,0,0,0,6.66-1.48,12.37,12.37,0,0,0,4.35-4,16.84,16.84,0,0,0,2.37-5.75A32.36,32.36,0,0,0,537.86,96Z"/><path class="cls-6" d="M581.94,115.16a2.35,2.35,0,0,1-.18,1,1.88,1.88,0,0,1-.45.63,1.58,1.58,0,0,1-.62.34,2.16,2.16,0,0,1-.63.1h-.81a4.39,4.39,0,0,1-1.19-.16,3.15,3.15,0,0,1-1-.57,5.67,5.67,0,0,1-1-1.09,17.59,17.59,0,0,1-1.12-1.75L560.1,87.41q-1.11-1.92-2.23-3.94t-2.12-4h0c0,1.58,0,3.2,0,4.86v32.05a.64.64,0,0,1-.43.62,2.82,2.82,0,0,1-.6.16,6,6,0,0,1-1,.06,6.17,6.17,0,0,1-.94-.06,2.88,2.88,0,0,1-.62-.16.81.81,0,0,1-.33-.26.74.74,0,0,1-.09-.36V77.12a1.83,1.83,0,0,1,.61-1.6,2,2,0,0,1,1.2-.44h1.63a5.32,5.32,0,0,1,1.3.13,2.53,2.53,0,0,1,.94.44,3.65,3.65,0,0,1,.82.87,16.12,16.12,0,0,1,.9,1.45l11.33,20.09c.71,1.25,1.39,2.46,2,3.62s1.26,2.29,1.87,3.41l1.8,3.29c.6,1.08,1.19,2.17,1.77,3.28h0c0-1.82,0-3.71,0-5.68V75.86a.65.65,0,0,1,.1-.36.75.75,0,0,1,.32-.28,2,2,0,0,1,.6-.16,8.18,8.18,0,0,1,1,0,7.9,7.9,0,0,1,.91,0,2.13,2.13,0,0,1,.62.16,1,1,0,0,1,.34.28.66.66,0,0,1,.11.36Z"/><path class="cls-6" d="M317.45,96.05a20.55,20.55,0,0,0,41.1,0c0-.29,0-.58,0-.87H339v4H354.3L354,100.4a16.56,16.56,0,1,1-5.47-17.15l2.84-2.84a20.56,20.56,0,0,0-33.89,15.64Z"/></svg>