<?xml version="1.0" encoding="utf-8"?>
<!-- Generator: Adobe Illustrator 26.0.2, SVG Export Plug-In . SVG Version: 6.00 Build 0)  -->
<svg version="1.1" id="Layer_1" xmlns="http://www.w3.org/2000/svg" xmlns:xlink="http://www.w3.org/1999/xlink" x="0px" y="0px"
	 viewBox="0 0 1034.5 319.5" style="enable-background:new 0 0 1034.5 319.5;" xml:space="preserve">
<style type="text/css">
	.st0{fill:#191919;stroke:#FFFFFF;stroke-width:3.84;stroke-miterlimit:10;}
	.st1{fill:#FFFFFF;}
	.st2{fill:#0B3D91;}
	.st3{fill:#FC3D21;}
</style>
<path class="st0" d="M51.9,1.9h930.7c27.6,0,50,22.4,50,50v215.6c0,27.6-22.4,50-50,50H51.9c-27.6,0-50-22.4-50-50V51.9
	C1.9,24.3,24.3,1.9,51.9,1.9z"/>
<g>
	<path class="st1" d="M412.6,119.6v78.9h-14.4l-34.3-49.7h-0.6v49.7h-16.7v-78.9h14.6l34.1,49.6h0.7v-49.6H412.6z"/>
	<path class="st1" d="M440,198.5h-17.9l27.3-78.9h21.5l27.2,78.9h-17.9l-19.8-60.9h-0.6L440,198.5z M438.8,167.5H481v13h-42.2V167.5
		z"/>
	<path class="st1" d="M548.5,142.3c-0.3-3.1-1.6-5.5-4-7.2c-2.3-1.7-5.5-2.6-9.5-2.6c-2.7,0-5,0.4-6.9,1.1c-1.9,0.8-3.3,1.8-4.3,3.1
		s-1.5,2.9-1.5,4.5c-0.1,1.4,0.3,2.6,0.9,3.7c0.7,1.1,1.6,2,2.7,2.7c1.2,0.8,2.5,1.4,4,2s3.1,1,4.9,1.4l7.1,1.7
		c3.4,0.8,6.6,1.8,9.5,3.1s5.4,2.9,7.5,4.7c2.1,1.9,3.7,4.1,4.9,6.6s1.8,5.5,1.8,8.7c0,4.8-1.3,9-3.7,12.5s-5.9,6.3-10.5,8.2
		s-10.1,2.9-16.5,2.9s-11.9-1-16.6-2.9c-4.7-2-8.4-4.8-11-8.7c-2.6-3.8-4-8.6-4.1-14.3h16.1c0.2,2.6,0.9,4.9,2.3,6.6
		c1.3,1.8,3.2,3.1,5.4,4s4.8,1.3,7.7,1.3c2.8,0,5.3-0.4,7.4-1.2c2.1-0.8,3.7-2,4.9-3.4c1.2-1.5,1.7-3.1,1.7-5c0-1.8-0.5-3.3-1.6-4.5
		c-1-1.2-2.6-2.2-4.5-3.1c-2-0.8-4.4-1.6-7.3-2.3l-8.6-2.2c-6.7-1.6-11.9-4.1-15.8-7.6c-3.9-3.4-5.8-8.1-5.7-13.9
		c0-4.8,1.3-9,3.8-12.5c2.6-3.6,6.1-6.4,10.7-8.4s9.7-3,15.4-3c5.9,0,11,1,15.4,3s7.8,4.8,10.2,8.4c2.4,3.6,3.7,7.7,3.8,12.4h-16
		V142.3z"/>
	<path class="st1" d="M588.5,198.5h-17.9l27.2-78.9h21.5l27.2,78.9h-17.9l-19.8-60.9h-0.6L588.5,198.5z M587.4,167.5h42.2v13h-42.2
		V167.5z"/>
	<path class="st1" d="M694.8,198.5H677l27.2-78.9h21.5l27.2,78.9H735l-19.8-60.9h-0.6L694.8,198.5z M693.7,167.5H736v13h-42.2
		L693.7,167.5L693.7,167.5z"/>
	<path class="st1" d="M762.1,220.7v-81.4h16.2v9.9h0.7c0.7-1.6,1.8-3.2,3.1-4.9c1.4-1.7,3.2-3,5.4-4.2c2.2-1.1,5-1.7,8.3-1.7
		c4.3,0,8.3,1.1,11.9,3.4c3.6,2.2,6.6,5.6,8.7,10.1c2.2,4.5,3.3,10.2,3.3,16.9c0,6.6-1.1,12.2-3.2,16.7c-2.1,4.5-5,8-8.6,10.3
		s-7.7,3.5-12.2,3.5c-3.2,0-5.9-0.5-8.1-1.6s-4-2.4-5.5-4c-1.4-1.6-2.5-3.2-3.2-4.9h-0.5v31.7h-16.3V220.7z M778.2,168.9
		c0,3.5,0.5,6.6,1.5,9.2s2.4,4.7,4.2,6.1c1.9,1.5,4.1,2.2,6.7,2.2c2.7,0,4.9-0.7,6.8-2.2c1.9-1.5,3.3-3.5,4.2-6.2
		c1-2.6,1.4-5.7,1.4-9.1c0-3.4-0.5-6.4-1.4-9c-1-2.6-2.4-4.6-4.2-6.1c-1.9-1.5-4.1-2.2-6.8-2.2s-4.9,0.7-6.8,2.1
		c-1.8,1.4-3.2,3.4-4.2,6C778.7,162.3,778.2,165.4,778.2,168.9z"/>
	<path class="st1" d="M830.7,220.7v-81.4h16.2v9.9h0.7c0.7-1.6,1.8-3.2,3.1-4.9c1.4-1.7,3.2-3,5.4-4.2c2.2-1.1,5-1.7,8.3-1.7
		c4.3,0,8.3,1.1,11.9,3.4c3.6,2.2,6.6,5.6,8.7,10.1c2.2,4.5,3.3,10.2,3.3,16.9c0,6.6-1.1,12.2-3.2,16.7c-2.1,4.5-5,8-8.6,10.3
		s-7.7,3.5-12.2,3.5c-3.2,0-5.9-0.5-8.1-1.6s-4-2.4-5.5-4c-1.4-1.6-2.5-3.2-3.2-4.9H847v31.7h-16.3V220.7z M846.8,168.9
		c0,3.5,0.5,6.6,1.5,9.2s2.4,4.7,4.2,6.1c1.9,1.5,4.1,2.2,6.7,2.2c2.7,0,4.9-0.7,6.8-2.2c1.9-1.5,3.3-3.5,4.2-6.2
		c1-2.6,1.4-5.7,1.4-9.1c0-3.4-0.5-6.4-1.4-9c-1-2.6-2.4-4.6-4.2-6.1c-1.9-1.5-4.1-2.2-6.8-2.2s-4.9,0.7-6.8,2.1
		c-1.8,1.4-3.2,3.4-4.2,6C847.3,162.3,846.8,165.4,846.8,168.9z"/>
	<path class="st1" d="M948.7,156.2l-15,0.9c-0.3-1.3-0.8-2.4-1.7-3.5c-0.8-1-2-1.9-3.3-2.5c-1.4-0.6-3-0.9-4.9-0.9
		c-2.5,0-4.7,0.5-6.4,1.6s-2.6,2.5-2.6,4.3c0,1.4,0.6,2.6,1.7,3.6c1.1,1,3.1,1.8,5.8,2.4l10.7,2.2c5.8,1.2,10,3.1,12.9,5.7
		c2.8,2.6,4.2,6.1,4.2,10.3c0,3.9-1.1,7.3-3.4,10.2c-2.3,2.9-5.4,5.2-9.3,6.8c-3.9,1.6-8.5,2.4-13.6,2.4c-7.8,0-14.1-1.6-18.7-4.9
		c-4.6-3.3-7.4-7.7-8.2-13.4l16.2-0.8c0.5,2.4,1.7,4.2,3.5,5.5c1.9,1.2,4.3,1.9,7.2,1.9s5.2-0.6,7-1.7c1.8-1.1,2.7-2.6,2.7-4.3
		c0-1.5-0.7-2.7-1.9-3.7s-3.1-1.7-5.7-2.2l-10.3-2c-5.8-1.2-10.1-3.2-12.9-6c-2.8-2.9-4.2-6.5-4.2-10.9c0-3.8,1-7.1,3.1-9.8
		s5-4.9,8.7-6.4c3.8-1.5,8.2-2.2,13.2-2.2c7.5,0,13.4,1.6,17.7,4.7C945.4,146.4,947.9,150.7,948.7,156.2z"/>
</g>
<circle class="st2" cx="167" cy="161.1" r="108.7"/>
<g>
	<circle class="st1" cx="160.6" cy="76.3" r="1.2"/>
	<circle class="st1" cx="173.1" cy="77.9" r="1.2"/>
	<circle class="st1" cx="189.5" cy="100" r="1.2"/>
	<circle class="st1" cx="99.5" cy="213.7" r="1.2"/>
	<circle class="st1" cx="102.6" cy="223.5" r="1.2"/>
	<circle class="st1" cx="87.5" cy="215.2" r="0.9"/>
	<circle class="st1" cx="137.1" cy="234.3" r="0.9"/>
	<circle class="st1" cx="214.8" cy="218.2" r="0.9"/>
	<circle class="st1" cx="237.4" cy="193.7" r="0.9"/>
	<circle class="st1" cx="126.7" cy="107.1" r="0.9"/>
	<circle class="st1" cx="151.6" cy="88.9" r="0.9"/>
	<circle class="st1" cx="148.9" cy="87.1" r="0.9"/>
	<circle class="st1" cx="146.4" cy="85.3" r="0.9"/>
	<circle class="st1" cx="130.6" cy="111.8" r="0.9"/>
	<circle class="st1" cx="167.2" cy="64.3" r="0.9"/>
	<circle class="st1" cx="173.2" cy="90.6" r="0.9"/>
	<circle class="st1" cx="163.7" cy="85.5" r="0.9"/>
	<circle class="st1" cx="147.5" cy="92.5" r="0.9"/>
	<circle class="st1" cx="219.1" cy="242.3" r="0.9"/>
	<circle class="st1" cx="97.9" cy="219.9" r="0.9"/>
	<circle class="st1" cx="161.5" cy="231.7" r="0.9"/>
	<circle class="st1" cx="116.8" cy="219.2" r="0.9"/>
	<circle class="st1" cx="124.7" cy="232.1" r="0.9"/>
	<circle class="st1" cx="182.9" cy="223.9" r="0.9"/>
	<circle class="st1" cx="215" cy="205.8" r="0.9"/>
	<circle class="st1" cx="239.3" cy="217" r="0.9"/>
	<circle class="st1" cx="247.6" cy="222.3" r="0.9"/>
	<circle class="st1" cx="248.9" cy="207.8" r="0.9"/>
	<circle class="st1" cx="128.1" cy="187.3" r="0.9"/>
	<circle class="st1" cx="128.4" cy="208.3" r="1.2"/>
	<circle class="st1" cx="135.7" cy="223.7" r="1.2"/>
	<circle class="st1" cx="223.3" cy="207.6" r="1.2"/>
	<circle class="st1" cx="254.8" cy="205.8" r="1.2"/>
	<circle class="st1" cx="239.2" cy="199.2" r="1.2"/>
	<circle class="st1" cx="223.3" cy="199.8" r="1.2"/>
	<path class="st1" d="M190.4,75.5l3-0.3l-3-0.2c-0.1-0.6-0.6-1-1.2-1.1l-0.3-3l-0.2,3c-0.5,0.1-1,0.6-1,1.1l-3.1,0.3l3.1,0.2
		c0.1,0.5,0.5,0.9,1.1,1l0.3,3.1l0.2-3.1C189.9,76.5,190.3,76.1,190.4,75.5z"/>
	<path class="st1" d="M139.3,109.2l3-0.3l-3-0.2c-0.1-0.6-0.6-1-1.2-1.1l-0.3-3l-0.2,3c-0.5,0.1-1,0.6-1,1.1l-3.1,0.3l3.1,0.2
		c0.1,0.5,0.5,0.9,1.1,1l0.3,3.1l0.2-3.1C138.8,110.2,139.2,109.8,139.3,109.2z"/>
	<path class="st1" d="M252.6,198.4l3-0.3l-3-0.2c-0.1-0.6-0.6-1-1.2-1.1l-0.3-3l-0.2,3c-0.5,0.1-1,0.6-1,1.1l-3.1,0.3l3.1,0.2
		c0.1,0.5,0.5,0.9,1.1,1l0.3,3.1l0.2-3.1C252,199.4,252.5,199,252.6,198.4z"/>
	<path class="st1" d="M129.1,245.1l3-0.3l-3-0.2c-0.1-0.6-0.6-1-1.2-1.1l-0.3-3l-0.2,3c-0.5,0.1-1,0.6-1,1.1l-3.1,0.3l3.1,0.2
		c0.1,0.5,0.5,0.9,1.1,1l0.3,3.1l0.2-3.1C128.5,246.1,129,245.6,129.1,245.1z"/>
	<path class="st1" d="M243,222.3l3-0.3l-3-0.2c-0.1-0.6-0.6-1-1.2-1.1l-0.3-3l-0.2,3c-0.5,0.1-1,0.6-1,1.1l-3.1,0.3l3.1,0.2
		c0.1,0.5,0.5,0.9,1.1,1l0.3,3.1l0.2-3.1C242.4,223.3,242.9,222.9,243,222.3z"/>
	<path class="st3" d="M192.8,138c-12.6,4.9-25,9.3-35.4,12.6c-21.1,6.6-79,24.5-113.9,47.1l2.9,1.1c21.3-12,35.1-15.8,48.4-20
		c14.5-4.5,61.2-15.5,82.4-21.4c7.2-2,15.5-4.6,24.4-7.9c-2.1-2.9-4.2-5.8-6.5-8.6C194.3,140,193.5,139,192.8,138z M208.2,159.3
		c-3.1,2.1-5.6,3.7-7.4,4.8c-10.4,6-61.1,40.6-72.6,48.6s-43.5,38.2-53,47l-0.3,3.6c30.4-27.3,39.9-34,52-43.2
		c14.9-11.4,45.9-32.4,56.4-39.2c10-6.4,19.1-12.4,27.2-17.8c-0.1-0.2-0.3-0.4-0.4-0.7C209.5,161.4,208.8,160.3,208.2,159.3z
		 M255.7,109.2c-14.8,8.7-38.1,19.1-60.8,28c0.5,0.7,1.1,1.3,1.6,2c2.5,3.2,4.9,6.4,7.2,9.6c17.8-6.6,37.3-15.3,52.8-26
		c-7.4,7-31.8,25.2-46.7,35.4c0.8,1.2,1.5,2.5,2.2,3.7c22.5-15.1,37.7-26.2,46.5-33.6c12.2-10.2,40-33.1,50.5-63.9
		C290.6,88,268.7,101.5,255.7,109.2z"/>
	<path class="st1" d="M153,191c-2.4-3-5.7-7.1-8.2-10.2c-3.3-4.2-6.4-8.4-9.2-12.6c-0.9,0.2-1.8,0.5-2.8,0.7
		c3.4,5.3,7.2,10.6,11.3,15.8c3,3.8,5.7,6.8,7.2,8.7c0.3,0.4,0.8,1.2,1.6,2.4c0.9-0.6,1.8-1.2,2.7-1.8C154.7,193,153.8,192,153,191z
		 M170.5,206.9c-2-1.9-6.7-5-11.7-9.6c-1.1,0.8-2.2,1.5-3.3,2.3c3.2,4.5,7.6,10.1,11,11.7C171.6,213.7,173,209.3,170.5,206.9z
		 M196.6,139.2c-28.4-35.8-63.1-55.4-78.1-43.5c-11.6,9.2-6.9,36.2,9.2,64.6c0.8-0.3,1.6-0.6,2.5-0.8c-16.2-27.6-20.6-53.3-9.6-62
		c13.8-10.9,47,8.8,74.6,43.5c5.7,7.2,10.7,14.4,15,21.4c16.3,26.9,21.3,51.3,10,61.3c-3.4,3-14,4.2-27.7-2
		c-0.2,0.2,0.1,0.9,0.4,1.1c11.9,4.8,23.3,6.6,29,2C235.6,213.8,225,175,196.6,139.2z"/>
	<path class="st1" d="M74.7,143.5h18.2l15.3,25.9c0,0,0-18.8,0-20.2c0-2.3-2.9-5.2-3.9-5.7c1.2,0,11.9,0,12.6,0
		c-0.8,0.2-3.2,3.2-3.2,5.7c0,1.2,0,28.4,0,29.7c0,1.8,2.6,4.3,3.9,5.3H100l-15.5-26c0,0,0,19.4,0,20.5c0,2,2,4,4.1,5.6H75.1
		c1.9-0.8,3.7-3.4,3.9-5.4c0.2-2,0-28.2,0-29.4C79,147,76.6,145,74.7,143.5z"/>
	<path class="st1" d="M241.2,184.2h24.2c-1.3-0.3-2.8-1.9-3.7-4c-0.8-2.1-13.6-36.7-13.6-36.7h-9.2c-2.6,1.9-5.4,3.9-8.4,5.9
		c0,0.1,0,0.2,0,0.2c-0.4,2.4-7.6,28.5-8,29.8c-0.6,1.8-3.7,3.8-5,4.8h13c-1.3-1.5-2.4-2.9-2.1-4.5c0.2-1.6,1-4.9,1-4.9h13.5
		c0.6,1.6,1.1,3.1,1.3,4.5C244.4,181,242.7,182.9,241.2,184.2z M230.5,169.7l4.5-14.9l6,14.9H230.5z M228.5,144.9
		c0.7-0.5,1.3-1,2-1.5h-3.5C227.3,143.8,227.9,144.3,228.5,144.9z"/>
	<path class="st1" d="M135.9,179.8c0.2-1.6,1-4.9,1-4.9h13.5c0.6,1.6,1.1,3.1,1.3,4.5c0.3,1.7-1.4,3.5-2.9,4.8H170
		c0.4-0.3,0.9-0.6,1.3-0.9c-0.8-0.7-1.6-1.8-2.1-3.1c-0.8-2.1-13.6-36.7-13.6-36.7h-21.1c1,0.9,3.9,3.5,3.5,6.2
		c-0.4,2.4-7.6,28.5-8,29.8c-0.6,1.8-3.7,3.8-5,4.8h13C136.7,182.8,135.6,181.4,135.9,179.8z M142.6,154.8l6,14.9h-10.6L142.6,154.8
		z"/>
	<path class="st1" d="M209.5,163.7c-4,2.6-8.2,5.4-12.6,8.3c2,1,3.6,2.2,3.7,3.7c0.3,2.9-5.6,4.3-10.9,3.7c-1.1-0.1-2.1-0.4-3.1-0.8
		c-1.1,0.7-2.2,1.4-3.4,2.2c-1.2,0.7-2.5,1.6-4.1,2.7v4.2c1.1-2.1,3.4-3.9,5.2-4c0.8,0,3.5,2.4,14.5,1.8c5.4-0.3,15.7-6,15.6-12.6
		C214.2,169.1,212.2,166,209.5,163.7z M179.1,173.8v4.3c1-0.7,1.9-1.3,2.9-1.9C180.5,175.2,179.4,174.2,179.1,173.8z M205.7,161
		c-1-0.6-2.1-1.1-3.1-1.6c-5.2-2.4-10.6-2.9-11.8-6.2c-0.8-2.3,1.5-4.5,7-4.4c5.5,0.1,10.6,3.4,12,4.5v-10.5
		c-0.4,0.4-2.2,2.5-3.8,2.1c-3.1-0.6-8.4-1.5-14.5-1.5c-7,0-13,5.4-13.2,12.3c-0.3,9.5,7.4,12.1,11.7,13.6c0.4,0.2,1,0.3,1.5,0.5
		c4.1-2.7,7.4-4.8,9.3-5.9C202.1,163.3,203.8,162.3,205.7,161z"/>
</g>
</svg>
